<mxfile host="app.diagrams.net" agent="Mozilla/5.0 (Windows NT 10.0; Win64; x64) AppleWebKit/537.36 (KHTML, like Gecko) Chrome/141.0.0.0 Safari/537.36" version="28.2.8">
  <diagram name="Page-1" id="nNE7cXkLWbT5HRCkaGo4">
    <mxGraphModel dx="1402" dy="902" grid="1" gridSize="10" guides="1" tooltips="1" connect="1" arrows="1" fold="1" page="1" pageScale="1" pageWidth="827" pageHeight="1169" math="0" shadow="0">
      <root>
        <mxCell id="0" />
        <mxCell id="1" parent="0" />
        <mxCell id="-XhT5Pp7xZniYWt6SDc9-1" value="" style="rounded=0;whiteSpace=wrap;html=1;direction=south;labelPosition=center;verticalLabelPosition=middle;align=center;verticalAlign=middle;" vertex="1" parent="1">
          <mxGeometry x="414" y="200" width="946" height="800" as="geometry" />
        </mxCell>
        <mxCell id="-XhT5Pp7xZniYWt6SDc9-3" value="&lt;font style=&quot;font-size: 24px;&quot;&gt;&lt;b style=&quot;&quot;&gt;SkillForge&lt;/b&gt;&lt;/font&gt;" style="text;html=1;whiteSpace=wrap;strokeColor=none;fillColor=none;align=center;verticalAlign=middle;rounded=0;" vertex="1" parent="1">
          <mxGeometry x="797" y="210" width="180" height="30" as="geometry" />
        </mxCell>
        <mxCell id="-XhT5Pp7xZniYWt6SDc9-173" style="edgeStyle=orthogonalEdgeStyle;rounded=0;orthogonalLoop=1;jettySize=auto;html=1;endArrow=block;endFill=0;" edge="1" parent="1" source="-XhT5Pp7xZniYWt6SDc9-5" target="-XhT5Pp7xZniYWt6SDc9-8">
          <mxGeometry relative="1" as="geometry">
            <Array as="points">
              <mxPoint x="1450" y="1020" />
              <mxPoint x="200" y="1020" />
            </Array>
          </mxGeometry>
        </mxCell>
        <mxCell id="-XhT5Pp7xZniYWt6SDc9-5" value="&lt;font style=&quot;font-size: 18px;&quot;&gt;&lt;b&gt;Admin&lt;/b&gt;&lt;/font&gt;" style="shape=umlActor;verticalLabelPosition=bottom;verticalAlign=top;html=1;outlineConnect=0;" vertex="1" parent="1">
          <mxGeometry x="1400" y="500" width="100" height="130" as="geometry" />
        </mxCell>
        <mxCell id="-XhT5Pp7xZniYWt6SDc9-147" style="edgeStyle=orthogonalEdgeStyle;rounded=0;orthogonalLoop=1;jettySize=auto;html=1;endArrow=block;endFill=0;" edge="1" parent="1" source="-XhT5Pp7xZniYWt6SDc9-6" target="-XhT5Pp7xZniYWt6SDc9-8">
          <mxGeometry relative="1" as="geometry" />
        </mxCell>
        <mxCell id="-XhT5Pp7xZniYWt6SDc9-6" value="&lt;font style=&quot;font-size: 18px;&quot;&gt;&lt;b&gt;Instructor&lt;/b&gt;&lt;/font&gt;" style="shape=umlActor;verticalLabelPosition=bottom;verticalAlign=top;html=1;outlineConnect=0;" vertex="1" parent="1">
          <mxGeometry x="290" y="670" width="100" height="130" as="geometry" />
        </mxCell>
        <mxCell id="-XhT5Pp7xZniYWt6SDc9-146" style="edgeStyle=orthogonalEdgeStyle;rounded=0;orthogonalLoop=1;jettySize=auto;html=1;endArrow=block;endFill=0;" edge="1" parent="1" source="-XhT5Pp7xZniYWt6SDc9-7" target="-XhT5Pp7xZniYWt6SDc9-8">
          <mxGeometry relative="1" as="geometry" />
        </mxCell>
        <mxCell id="-XhT5Pp7xZniYWt6SDc9-7" value="&lt;font style=&quot;font-size: 18px;&quot;&gt;&lt;b&gt;Student&lt;/b&gt;&lt;/font&gt;" style="shape=umlActor;verticalLabelPosition=bottom;verticalAlign=top;html=1;outlineConnect=0;" vertex="1" parent="1">
          <mxGeometry x="290" y="410" width="100" height="130" as="geometry" />
        </mxCell>
        <mxCell id="-XhT5Pp7xZniYWt6SDc9-8" value="&lt;font style=&quot;font-size: 18px;&quot;&gt;&lt;b&gt;User&lt;/b&gt;&lt;/font&gt;" style="shape=umlActor;verticalLabelPosition=bottom;verticalAlign=top;html=1;outlineConnect=0;fontSize=12;" vertex="1" parent="1">
          <mxGeometry x="150" y="290" width="100" height="130" as="geometry" />
        </mxCell>
        <mxCell id="-XhT5Pp7xZniYWt6SDc9-62" value="&lt;font style=&quot;font-size: 18px;&quot;&gt;&lt;b&gt;Browse Courses&lt;/b&gt;&lt;/font&gt;" style="ellipse;whiteSpace=wrap;html=1;" vertex="1" parent="1">
          <mxGeometry x="500" y="370" width="150" height="80" as="geometry" />
        </mxCell>
        <mxCell id="-XhT5Pp7xZniYWt6SDc9-87" style="edgeStyle=orthogonalEdgeStyle;rounded=0;orthogonalLoop=1;jettySize=auto;html=1;exitX=0.5;exitY=1;exitDx=0;exitDy=0;" edge="1" parent="1" source="-XhT5Pp7xZniYWt6SDc9-3" target="-XhT5Pp7xZniYWt6SDc9-3">
          <mxGeometry relative="1" as="geometry" />
        </mxCell>
        <mxCell id="-XhT5Pp7xZniYWt6SDc9-98" style="edgeStyle=orthogonalEdgeStyle;rounded=0;orthogonalLoop=1;jettySize=auto;html=1;exitX=0.5;exitY=1;exitDx=0;exitDy=0;" edge="1" parent="1">
          <mxGeometry relative="1" as="geometry">
            <mxPoint x="877.5" y="500" as="sourcePoint" />
            <mxPoint x="877.5" y="500" as="targetPoint" />
          </mxGeometry>
        </mxCell>
        <mxCell id="-XhT5Pp7xZniYWt6SDc9-129" value="&lt;span style=&quot;font-size: 18px;&quot;&gt;&lt;b&gt;Enroll in Course&lt;/b&gt;&lt;/span&gt;" style="ellipse;whiteSpace=wrap;html=1;" vertex="1" parent="1">
          <mxGeometry x="500" y="460" width="150" height="80" as="geometry" />
        </mxCell>
        <mxCell id="-XhT5Pp7xZniYWt6SDc9-130" value="&lt;span style=&quot;font-size: 18px;&quot;&gt;&lt;b&gt;Complete Lesson&lt;/b&gt;&lt;/span&gt;" style="ellipse;whiteSpace=wrap;html=1;" vertex="1" parent="1">
          <mxGeometry x="500" y="550" width="150" height="80" as="geometry" />
        </mxCell>
        <mxCell id="-XhT5Pp7xZniYWt6SDc9-131" value="&lt;span style=&quot;font-size: 18px;&quot;&gt;&lt;b&gt;Complete Quiz&lt;/b&gt;&lt;/span&gt;" style="ellipse;whiteSpace=wrap;html=1;" vertex="1" parent="1">
          <mxGeometry x="500" y="650" width="150" height="80" as="geometry" />
        </mxCell>
        <mxCell id="-XhT5Pp7xZniYWt6SDc9-132" value="&lt;span style=&quot;font-size: 18px;&quot;&gt;&lt;b&gt;View Progress&lt;/b&gt;&lt;/span&gt;" style="ellipse;whiteSpace=wrap;html=1;" vertex="1" parent="1">
          <mxGeometry x="500" y="740" width="150" height="80" as="geometry" />
        </mxCell>
        <mxCell id="-XhT5Pp7xZniYWt6SDc9-133" value="&lt;span style=&quot;font-size: 18px;&quot;&gt;&lt;b&gt;Earn Certificate&lt;/b&gt;&lt;/span&gt;" style="ellipse;whiteSpace=wrap;html=1;" vertex="1" parent="1">
          <mxGeometry x="500" y="840" width="150" height="80" as="geometry" />
        </mxCell>
        <mxCell id="-XhT5Pp7xZniYWt6SDc9-134" value="&lt;span style=&quot;font-size: 18px;&quot;&gt;&lt;b&gt;Create Course&lt;/b&gt;&lt;/span&gt;" style="ellipse;whiteSpace=wrap;html=1;" vertex="1" parent="1">
          <mxGeometry x="812" y="390" width="150" height="80" as="geometry" />
        </mxCell>
        <mxCell id="-XhT5Pp7xZniYWt6SDc9-135" value="&lt;span style=&quot;font-size: 18px;&quot;&gt;&lt;b&gt;Manage Courses&lt;/b&gt;&lt;/span&gt;" style="ellipse;whiteSpace=wrap;html=1;" vertex="1" parent="1">
          <mxGeometry x="812" y="490" width="150" height="80" as="geometry" />
        </mxCell>
        <mxCell id="-XhT5Pp7xZniYWt6SDc9-136" value="&lt;span style=&quot;font-size: 18px;&quot;&gt;&lt;b&gt;Upload Lessons&lt;/b&gt;&lt;/span&gt;" style="ellipse;whiteSpace=wrap;html=1;" vertex="1" parent="1">
          <mxGeometry x="812" y="590" width="150" height="80" as="geometry" />
        </mxCell>
        <mxCell id="-XhT5Pp7xZniYWt6SDc9-137" value="&lt;span style=&quot;font-size: 18px;&quot;&gt;&lt;b&gt;Design Quizzes&lt;/b&gt;&lt;/span&gt;" style="ellipse;whiteSpace=wrap;html=1;" vertex="1" parent="1">
          <mxGeometry x="812" y="700" width="150" height="80" as="geometry" />
        </mxCell>
        <mxCell id="-XhT5Pp7xZniYWt6SDc9-138" value="&lt;span style=&quot;font-size: 18px;&quot;&gt;&lt;b&gt;View Students Progress&lt;/b&gt;&lt;/span&gt;" style="ellipse;whiteSpace=wrap;html=1;" vertex="1" parent="1">
          <mxGeometry x="812" y="800" width="150" height="80" as="geometry" />
        </mxCell>
        <mxCell id="-XhT5Pp7xZniYWt6SDc9-139" value="&lt;font style=&quot;font-size: 18px;&quot;&gt;&lt;b&gt;Log In&lt;/b&gt;&lt;/font&gt;" style="ellipse;whiteSpace=wrap;html=1;" vertex="1" parent="1">
          <mxGeometry x="610" y="240" width="150" height="80" as="geometry" />
        </mxCell>
        <mxCell id="-XhT5Pp7xZniYWt6SDc9-140" value="&lt;b&gt;&lt;font style=&quot;font-size: 18px;&quot;&gt;Register&lt;/font&gt;&lt;/b&gt;" style="ellipse;whiteSpace=wrap;html=1;" vertex="1" parent="1">
          <mxGeometry x="812" y="300" width="150" height="80" as="geometry" />
        </mxCell>
        <mxCell id="-XhT5Pp7xZniYWt6SDc9-141" value="&lt;b&gt;&lt;font style=&quot;font-size: 18px;&quot;&gt;Log out&lt;/font&gt;&lt;/b&gt;" style="ellipse;whiteSpace=wrap;html=1;" vertex="1" parent="1">
          <mxGeometry x="1000" y="240" width="150" height="80" as="geometry" />
        </mxCell>
        <mxCell id="-XhT5Pp7xZniYWt6SDc9-142" value="&lt;font style=&quot;font-size: 18px;&quot;&gt;&lt;b style=&quot;&quot;&gt;Manage Users&lt;/b&gt;&lt;/font&gt;" style="ellipse;whiteSpace=wrap;html=1;" vertex="1" parent="1">
          <mxGeometry x="1091" y="420" width="150" height="80" as="geometry" />
        </mxCell>
        <mxCell id="-XhT5Pp7xZniYWt6SDc9-143" value="&lt;span style=&quot;font-size: 18px;&quot;&gt;&lt;b&gt;Approve Courses&lt;/b&gt;&lt;/span&gt;" style="ellipse;whiteSpace=wrap;html=1;" vertex="1" parent="1">
          <mxGeometry x="1091" y="525" width="150" height="80" as="geometry" />
        </mxCell>
        <mxCell id="-XhT5Pp7xZniYWt6SDc9-144" value="&lt;span style=&quot;font-size: 18px;&quot;&gt;&lt;b&gt;Remove Courses&lt;/b&gt;&lt;/span&gt;" style="ellipse;whiteSpace=wrap;html=1;" vertex="1" parent="1">
          <mxGeometry x="1091" y="635" width="150" height="80" as="geometry" />
        </mxCell>
        <mxCell id="-XhT5Pp7xZniYWt6SDc9-145" value="&lt;span style=&quot;font-size: 18px;&quot;&gt;&lt;b&gt;Monitor Platform Analytics&lt;/b&gt;&lt;/span&gt;" style="ellipse;whiteSpace=wrap;html=1;" vertex="1" parent="1">
          <mxGeometry x="1091" y="750" width="150" height="80" as="geometry" />
        </mxCell>
        <mxCell id="-XhT5Pp7xZniYWt6SDc9-149" value="" style="endArrow=none;html=1;rounded=0;exitX=0.5;exitY=0.5;exitDx=0;exitDy=0;exitPerimeter=0;" edge="1" parent="1" source="-XhT5Pp7xZniYWt6SDc9-8" target="-XhT5Pp7xZniYWt6SDc9-139">
          <mxGeometry width="50" height="50" relative="1" as="geometry">
            <mxPoint x="800" y="630" as="sourcePoint" />
            <mxPoint x="850" y="580" as="targetPoint" />
          </mxGeometry>
        </mxCell>
        <mxCell id="-XhT5Pp7xZniYWt6SDc9-151" value="" style="endArrow=none;html=1;rounded=0;exitX=0.5;exitY=0.5;exitDx=0;exitDy=0;exitPerimeter=0;" edge="1" parent="1" source="-XhT5Pp7xZniYWt6SDc9-8" target="-XhT5Pp7xZniYWt6SDc9-141">
          <mxGeometry width="50" height="50" relative="1" as="geometry">
            <mxPoint x="800" y="630" as="sourcePoint" />
            <mxPoint x="850" y="580" as="targetPoint" />
            <Array as="points">
              <mxPoint x="650" y="230" />
            </Array>
          </mxGeometry>
        </mxCell>
        <mxCell id="-XhT5Pp7xZniYWt6SDc9-152" value="" style="endArrow=none;html=1;rounded=0;exitX=0.5;exitY=0.5;exitDx=0;exitDy=0;exitPerimeter=0;entryX=0;entryY=0.5;entryDx=0;entryDy=0;" edge="1" parent="1" source="-XhT5Pp7xZniYWt6SDc9-7" target="-XhT5Pp7xZniYWt6SDc9-140">
          <mxGeometry width="50" height="50" relative="1" as="geometry">
            <mxPoint x="800" y="630" as="sourcePoint" />
            <mxPoint x="850" y="580" as="targetPoint" />
            <Array as="points">
              <mxPoint x="520" y="370" />
            </Array>
          </mxGeometry>
        </mxCell>
        <mxCell id="-XhT5Pp7xZniYWt6SDc9-155" value="" style="endArrow=none;html=1;rounded=0;exitX=0.5;exitY=0.5;exitDx=0;exitDy=0;exitPerimeter=0;entryX=0;entryY=0.5;entryDx=0;entryDy=0;" edge="1" parent="1" source="-XhT5Pp7xZniYWt6SDc9-7" target="-XhT5Pp7xZniYWt6SDc9-62">
          <mxGeometry width="50" height="50" relative="1" as="geometry">
            <mxPoint x="800" y="630" as="sourcePoint" />
            <mxPoint x="850" y="580" as="targetPoint" />
          </mxGeometry>
        </mxCell>
        <mxCell id="-XhT5Pp7xZniYWt6SDc9-156" value="" style="endArrow=none;html=1;rounded=0;exitX=0.5;exitY=0.5;exitDx=0;exitDy=0;exitPerimeter=0;" edge="1" parent="1" source="-XhT5Pp7xZniYWt6SDc9-7" target="-XhT5Pp7xZniYWt6SDc9-129">
          <mxGeometry width="50" height="50" relative="1" as="geometry">
            <mxPoint x="800" y="630" as="sourcePoint" />
            <mxPoint x="850" y="580" as="targetPoint" />
          </mxGeometry>
        </mxCell>
        <mxCell id="-XhT5Pp7xZniYWt6SDc9-157" value="" style="endArrow=none;html=1;rounded=0;exitX=0.5;exitY=0.5;exitDx=0;exitDy=0;exitPerimeter=0;entryX=0;entryY=0.5;entryDx=0;entryDy=0;" edge="1" parent="1" source="-XhT5Pp7xZniYWt6SDc9-7" target="-XhT5Pp7xZniYWt6SDc9-130">
          <mxGeometry width="50" height="50" relative="1" as="geometry">
            <mxPoint x="800" y="630" as="sourcePoint" />
            <mxPoint x="850" y="580" as="targetPoint" />
          </mxGeometry>
        </mxCell>
        <mxCell id="-XhT5Pp7xZniYWt6SDc9-158" value="" style="endArrow=none;html=1;rounded=0;exitX=0.5;exitY=0.5;exitDx=0;exitDy=0;exitPerimeter=0;entryX=0;entryY=0.5;entryDx=0;entryDy=0;" edge="1" parent="1" source="-XhT5Pp7xZniYWt6SDc9-7" target="-XhT5Pp7xZniYWt6SDc9-131">
          <mxGeometry width="50" height="50" relative="1" as="geometry">
            <mxPoint x="800" y="630" as="sourcePoint" />
            <mxPoint x="850" y="580" as="targetPoint" />
          </mxGeometry>
        </mxCell>
        <mxCell id="-XhT5Pp7xZniYWt6SDc9-159" value="" style="endArrow=none;html=1;rounded=0;exitX=0.5;exitY=0.5;exitDx=0;exitDy=0;exitPerimeter=0;entryX=0;entryY=0.5;entryDx=0;entryDy=0;" edge="1" parent="1" source="-XhT5Pp7xZniYWt6SDc9-7" target="-XhT5Pp7xZniYWt6SDc9-132">
          <mxGeometry width="50" height="50" relative="1" as="geometry">
            <mxPoint x="800" y="630" as="sourcePoint" />
            <mxPoint x="850" y="580" as="targetPoint" />
          </mxGeometry>
        </mxCell>
        <mxCell id="-XhT5Pp7xZniYWt6SDc9-160" value="" style="endArrow=none;html=1;rounded=0;exitX=0.5;exitY=0.5;exitDx=0;exitDy=0;exitPerimeter=0;entryX=0;entryY=0.5;entryDx=0;entryDy=0;" edge="1" parent="1" source="-XhT5Pp7xZniYWt6SDc9-7" target="-XhT5Pp7xZniYWt6SDc9-133">
          <mxGeometry width="50" height="50" relative="1" as="geometry">
            <mxPoint x="800" y="630" as="sourcePoint" />
            <mxPoint x="850" y="580" as="targetPoint" />
          </mxGeometry>
        </mxCell>
        <mxCell id="-XhT5Pp7xZniYWt6SDc9-166" value="" style="endArrow=none;html=1;rounded=0;exitX=0.5;exitY=0.5;exitDx=0;exitDy=0;exitPerimeter=0;entryX=0;entryY=0.5;entryDx=0;entryDy=0;" edge="1" parent="1" source="-XhT5Pp7xZniYWt6SDc9-6" target="-XhT5Pp7xZniYWt6SDc9-140">
          <mxGeometry width="50" height="50" relative="1" as="geometry">
            <mxPoint x="750" y="630" as="sourcePoint" />
            <mxPoint x="800" y="580" as="targetPoint" />
            <Array as="points">
              <mxPoint x="510" y="930" />
              <mxPoint x="610" y="930" />
              <mxPoint x="700" y="930" />
              <mxPoint x="700" y="640" />
              <mxPoint x="700" y="370" />
            </Array>
          </mxGeometry>
        </mxCell>
        <mxCell id="-XhT5Pp7xZniYWt6SDc9-167" value="" style="endArrow=none;html=1;rounded=0;exitX=0.5;exitY=0.5;exitDx=0;exitDy=0;exitPerimeter=0;entryX=0;entryY=0.5;entryDx=0;entryDy=0;" edge="1" parent="1" source="-XhT5Pp7xZniYWt6SDc9-6" target="-XhT5Pp7xZniYWt6SDc9-134">
          <mxGeometry width="50" height="50" relative="1" as="geometry">
            <mxPoint x="750" y="630" as="sourcePoint" />
            <mxPoint x="800" y="580" as="targetPoint" />
            <Array as="points">
              <mxPoint x="500" y="940" />
              <mxPoint x="730" y="940" />
              <mxPoint x="730" y="430" />
            </Array>
          </mxGeometry>
        </mxCell>
        <mxCell id="-XhT5Pp7xZniYWt6SDc9-168" value="" style="endArrow=none;html=1;rounded=0;exitX=0.5;exitY=0.5;exitDx=0;exitDy=0;exitPerimeter=0;entryX=0;entryY=0.5;entryDx=0;entryDy=0;" edge="1" parent="1" source="-XhT5Pp7xZniYWt6SDc9-6" target="-XhT5Pp7xZniYWt6SDc9-135">
          <mxGeometry width="50" height="50" relative="1" as="geometry">
            <mxPoint x="750" y="630" as="sourcePoint" />
            <mxPoint x="800" y="580" as="targetPoint" />
            <Array as="points">
              <mxPoint x="500" y="950" />
              <mxPoint x="740" y="950" />
              <mxPoint x="750" y="530" />
            </Array>
          </mxGeometry>
        </mxCell>
        <mxCell id="-XhT5Pp7xZniYWt6SDc9-169" value="" style="endArrow=none;html=1;rounded=0;exitX=0.5;exitY=0.5;exitDx=0;exitDy=0;exitPerimeter=0;entryX=0;entryY=0.5;entryDx=0;entryDy=0;" edge="1" parent="1" source="-XhT5Pp7xZniYWt6SDc9-6" target="-XhT5Pp7xZniYWt6SDc9-136">
          <mxGeometry width="50" height="50" relative="1" as="geometry">
            <mxPoint x="750" y="630" as="sourcePoint" />
            <mxPoint x="800" y="580" as="targetPoint" />
            <Array as="points">
              <mxPoint x="500" y="960" />
              <mxPoint x="750" y="960" />
              <mxPoint x="760" y="630" />
            </Array>
          </mxGeometry>
        </mxCell>
        <mxCell id="-XhT5Pp7xZniYWt6SDc9-170" value="" style="endArrow=none;html=1;rounded=0;exitX=0.5;exitY=0.5;exitDx=0;exitDy=0;exitPerimeter=0;entryX=0;entryY=0.5;entryDx=0;entryDy=0;" edge="1" parent="1" source="-XhT5Pp7xZniYWt6SDc9-6" target="-XhT5Pp7xZniYWt6SDc9-137">
          <mxGeometry width="50" height="50" relative="1" as="geometry">
            <mxPoint x="750" y="630" as="sourcePoint" />
            <mxPoint x="800" y="580" as="targetPoint" />
            <Array as="points">
              <mxPoint x="500" y="970" />
              <mxPoint x="760" y="970" />
              <mxPoint x="770" y="740" />
            </Array>
          </mxGeometry>
        </mxCell>
        <mxCell id="-XhT5Pp7xZniYWt6SDc9-171" value="" style="endArrow=none;html=1;rounded=0;exitX=0.5;exitY=0.5;exitDx=0;exitDy=0;exitPerimeter=0;entryX=0;entryY=0.5;entryDx=0;entryDy=0;" edge="1" parent="1" source="-XhT5Pp7xZniYWt6SDc9-6" target="-XhT5Pp7xZniYWt6SDc9-138">
          <mxGeometry width="50" height="50" relative="1" as="geometry">
            <mxPoint x="750" y="630" as="sourcePoint" />
            <mxPoint x="800" y="580" as="targetPoint" />
            <Array as="points">
              <mxPoint x="500" y="980" />
              <mxPoint x="780" y="980" />
            </Array>
          </mxGeometry>
        </mxCell>
        <mxCell id="-XhT5Pp7xZniYWt6SDc9-174" value="" style="endArrow=none;html=1;rounded=0;entryX=1;entryY=0.5;entryDx=0;entryDy=0;exitX=0.5;exitY=0.5;exitDx=0;exitDy=0;exitPerimeter=0;" edge="1" parent="1" source="-XhT5Pp7xZniYWt6SDc9-5" target="-XhT5Pp7xZniYWt6SDc9-142">
          <mxGeometry width="50" height="50" relative="1" as="geometry">
            <mxPoint x="750" y="630" as="sourcePoint" />
            <mxPoint x="800" y="580" as="targetPoint" />
          </mxGeometry>
        </mxCell>
        <mxCell id="-XhT5Pp7xZniYWt6SDc9-175" value="" style="endArrow=none;html=1;rounded=0;entryX=0.5;entryY=0.5;entryDx=0;entryDy=0;entryPerimeter=0;exitX=1;exitY=0.5;exitDx=0;exitDy=0;" edge="1" parent="1" source="-XhT5Pp7xZniYWt6SDc9-143" target="-XhT5Pp7xZniYWt6SDc9-5">
          <mxGeometry width="50" height="50" relative="1" as="geometry">
            <mxPoint x="750" y="630" as="sourcePoint" />
            <mxPoint x="800" y="580" as="targetPoint" />
          </mxGeometry>
        </mxCell>
        <mxCell id="-XhT5Pp7xZniYWt6SDc9-176" value="" style="endArrow=none;html=1;rounded=0;exitX=1;exitY=0.5;exitDx=0;exitDy=0;entryX=0.5;entryY=0.5;entryDx=0;entryDy=0;entryPerimeter=0;" edge="1" parent="1" source="-XhT5Pp7xZniYWt6SDc9-144" target="-XhT5Pp7xZniYWt6SDc9-5">
          <mxGeometry width="50" height="50" relative="1" as="geometry">
            <mxPoint x="750" y="630" as="sourcePoint" />
            <mxPoint x="800" y="580" as="targetPoint" />
          </mxGeometry>
        </mxCell>
        <mxCell id="-XhT5Pp7xZniYWt6SDc9-177" value="" style="endArrow=none;html=1;rounded=0;exitX=1;exitY=0.5;exitDx=0;exitDy=0;entryX=0.5;entryY=0.5;entryDx=0;entryDy=0;entryPerimeter=0;" edge="1" parent="1" source="-XhT5Pp7xZniYWt6SDc9-145" target="-XhT5Pp7xZniYWt6SDc9-5">
          <mxGeometry width="50" height="50" relative="1" as="geometry">
            <mxPoint x="750" y="630" as="sourcePoint" />
            <mxPoint x="800" y="580" as="targetPoint" />
          </mxGeometry>
        </mxCell>
        <mxCell id="-XhT5Pp7xZniYWt6SDc9-178" value="" style="endArrow=open;html=1;rounded=0;entryX=1;entryY=0.5;entryDx=0;entryDy=0;exitX=0;exitY=0.5;exitDx=0;exitDy=0;dashed=1;dashPattern=8 8;endFill=0;fontSize=11;" edge="1" parent="1" source="-XhT5Pp7xZniYWt6SDc9-140" target="-XhT5Pp7xZniYWt6SDc9-139">
          <mxGeometry width="50" height="50" relative="1" as="geometry">
            <mxPoint x="750" y="630" as="sourcePoint" />
            <mxPoint x="800" y="580" as="targetPoint" />
          </mxGeometry>
        </mxCell>
        <mxCell id="-XhT5Pp7xZniYWt6SDc9-179" value="&amp;lt;&amp;lt;extend&amp;gt;&amp;gt;" style="edgeLabel;html=1;align=center;verticalAlign=middle;resizable=0;points=[];fontSize=12;" vertex="1" connectable="0" parent="-XhT5Pp7xZniYWt6SDc9-178">
          <mxGeometry x="0.4775" y="-3" relative="1" as="geometry">
            <mxPoint x="10" y="16" as="offset" />
          </mxGeometry>
        </mxCell>
      </root>
    </mxGraphModel>
  </diagram>
</mxfile>
